<svg width="91" height="63" viewBox="0 0 91 63" fill="none" xmlns="http://www.w3.org/2000/svg">
<g filter="url(#filter0_d_68_14)">
<path d="M31.5 55C16.3122 55 4 42.6878 4 27.5C4 12.3122 16.3122 0 31.5 0C46.6878 0 59 12.3122 59 27.5C59 34.7935 56.1029 41.7881 50.9452 46.9452C45.7881 52.1029 38.7935 55 31.5 55Z" fill="black"/>
<path d="M59.5 55C44.3122 55 32 42.6878 32 27.5C32 12.3122 44.3122 0 59.5 0C74.6878 0 87 12.3122 87 27.5C87 34.7935 84.1029 41.7881 78.9452 46.9452C73.7881 52.1029 66.7935 55 59.5 55Z" fill="black"/>
<rect x="17" y="22" width="56" height="11" rx="5.5" fill="#D81E5B"/>
</g>
<defs>
<filter id="filter0_d_68_14" x="0" y="0" width="91" height="63" filterUnits="userSpaceOnUse" color-interpolation-filters="sRGB">
<feFlood flood-opacity="0" result="BackgroundImageFix"/>
<feColorMatrix in="SourceAlpha" type="matrix" values="0 0 0 0 0 0 0 0 0 0 0 0 0 0 0 0 0 0 127 0" result="hardAlpha"/>
<feOffset dy="4"/>
<feGaussianBlur stdDeviation="2"/>
<feComposite in2="hardAlpha" operator="out"/>
<feColorMatrix type="matrix" values="0 0 0 0 0 0 0 0 0 0 0 0 0 0 0 0 0 0 0.25 0"/>
<feBlend mode="normal" in2="BackgroundImageFix" result="effect1_dropShadow_68_14"/>
<feBlend mode="normal" in="SourceGraphic" in2="effect1_dropShadow_68_14" result="shape"/>
</filter>
</defs>
</svg>
